<!--?xml version="1.0" encoding="utf-8"?-->
<!-- Generator: Adobe Illustrator 18.0.0, SVG Export Plug-In . SVG Version: 6.00 Build 0)  -->

<svg version="1.1" id="_x32_" xmlns="http://www.w3.org/2000/svg" xmlns:xlink="http://www.w3.org/1999/xlink" x="0px" y="0px" viewBox="0 0 512 512" style="width: 256px; height: 256px; opacity: 1;" xml:space="preserve">
<style type="text/css">
	.st0{fill:#4B4B4B;}
</style>
<g>
	<path class="st0" d="M482.372,241.513c-19.111-19.105-44.534-29.63-71.584-29.63c-6.449,0-12.812,0.621-18.908,1.843
		c-2.604,0.46-5.13,1.074-7.654,1.757c-2.528,0.617-4.979,1.456-7.156,2.381l-33.711-70.261l-14.514-30.411h30.424
		c3.123,0,5.725,0.554,8.178,1.741c3.332,1.78,5.959,4.486,7.81,8.038c1.882,3.537,2.961,8.104,2.961,12.535
		c0,3.033-0.472,5.895-1.368,8.28c-0.769,2.307-1.999,4.349-3.554,6.129l14.29,14.144c0.664-0.652,1.152-1.484,1.759-2.194
		c0.502-0.59,0.986-1.187,1.442-1.8c1.091-1.472,2.065-3.049,2.938-4.735c0.35-0.676,0.683-1.359,0.99-2.054
		c0.39-0.882,0.91-1.651,1.244-2.58c1.68-4.681,2.532-9.787,2.532-15.19c0-5.43-0.851-10.591-2.53-15.334
		c-1.476-4.665-3.89-9.201-6.982-13.12c-3.387-4.353-7.716-7.886-12.512-10.212c-1.835-0.953-3.87-1.73-6.219-2.378
		c-3.275-1.023-6.97-1.538-10.977-1.538h-70.171l-8.34,0.156l0.16,20.112l25.541-0.09l12.572,25.96l5.306,11.114l-149.446,0.09
		l-8.401-17.309l-2.602-5.477l44.574-5.574l0.218-30.555l0.006-0.406h-0.004l0.002-0.16L97.95,94.945h-0.178l0,0h-0.16l0.502,39.663
		l0.039,4.594l0.02-0.004l0.002,0.16l44.552-5.442l5.885,12.231l9.018,18.902l-14.905,33.175l-9.662,21.85
		c-2.45-0.843-4.899-1.53-7.431-2.218c-2.602-0.617-5.132-1.148-7.728-1.534c-5.272-0.964-10.89-1.456-16.693-1.456
		c-27.004,0-52.399,10.525-71.506,29.63C10.55,263.655,0,289.077,0,316.08c0,16.228,3.812,31.835,11.331,46.393
		c4.774,9.248,10.956,17.696,18.375,25.113c7.398,7.472,15.871,13.683,25.186,18.453c14.085,7.312,29.946,11.176,45.87,11.176h0.722
		c26.911,0,52.209-10.52,71.234-29.63c12.726-12.648,21.862-28.638,26.413-46.241c0.689-2.526,1.224-5.055,1.685-7.655
		c0.458-2.53,0.841-5.056,0.913-7.511h39.29c0.693,0,1.386-0.078,2.184-0.164c0.771-0.227,1.386-0.461,2.772-1.152
		c0.548-0.238,1.028-0.558,1.96-1.409c0.541-0.539,1.079-1.156,1.626-1.858l58.272-90.709l30.467-47.271l20.507,42.664
		c-2.223,1.304-4.366,2.682-6.432,4.208c-2.145,1.456-4.216,3.064-6.199,4.821c-2.36,1.843-4.64,3.873-6.97,6.203
		c-19.058,19.14-29.554,44.562-29.554,71.588c0,27.054,10.496,52.448,29.554,71.502c19.105,19.109,44.527,29.63,71.582,29.63
		c27.055,0,52.477-10.521,71.584-29.63C501.477,365.58,512,340.186,512,313.101C512,286.048,501.477,260.622,482.372,241.513z
		 M459.519,361.832c-12.959,12.957-30.264,20.132-48.731,20.206c-18.465-0.074-35.771-7.249-48.731-20.206
		c-12.982-13.066-20.132-30.372-20.132-48.731c0-17.794,6.716-34.611,18.959-47.416c0.367-0.437,0.734-0.878,1.173-1.32
		c1.446-1.444,2.973-2.893,4.579-4.122c1.934-1.71,3.945-3.201,6.024-4.622l3.357,6.871l27.67,57.932
		c1.681,3.595,5.165,5.824,9.088,5.824c1.415,0,2.943-0.347,4.425-1.007c2.467-1.171,4.318-3.24,5.212-5.813
		c0.884-2.549,0.716-5.282-0.472-7.698l-27.594-57.788l-3.012-5.926l-0.425-0.89c2.53-0.788,5.084-1.378,7.606-1.749
		c2.405-0.496,4.997-0.82,7.925-0.992c1.45-0.074,2.898-0.148,4.349-0.148c18.366,0,35.671,7.148,48.731,20.128
		c12.984,12.984,20.134,30.294,20.134,48.735C479.653,331.457,472.503,348.766,459.519,361.832z M190.174,267.848
		c-4.591-8.503-10.464-16.357-17.456-23.353c-2.889-2.889-5.801-5.442-8.647-7.577c-1.991-1.682-4.06-3.217-6.205-4.673
		c-2.141-1.452-4.362-2.752-6.517-3.849l17.668-39.358l32.796,68.406l16.398,33.99l6.908,14.471l-23.23,0.148
		c-0.232-2.608-0.615-5.134-1.073-7.659c-0.461-2.604-0.996-5.13-1.685-7.655c-1.306-5.146-2.859-9.728-4.899-14.472
		C193.006,273.36,191.628,270.526,190.174,267.848z M131.773,306.066h-15.404l18.623-41.286l3.059-6.867
		c2.155,1.351,4.236,2.838,6.176,4.403c2.063,1.589,3.96,3.283,5.945,5.415c6.682,6.683,11.76,14.456,15.102,23.11
		c1.105,2.522,1.862,5.153,2.516,7.624c0.568,2.022,1.007,4.126,1.458,6.168c0.072,0.433,0.203,0.839,0.268,1.272L131.773,306.066z
		 M119.628,249.543l-3.199,7l-23.993,53.42c-0.318,0.554-0.474,1.187-0.626,1.796l-0.539,1.991c-0.711,3.014,0.016,6.234,1.942,8.62
		c1.948,2.42,4.864,3.81,7.999,3.81l59.475-0.164h8.7c-0.383,2.584-0.914,5.172-1.599,7.608c-0.605,2.569-1.427,5.134-2.44,7.624
		c-3.353,8.713-8.561,16.642-15.48,23.564c-12.959,12.956-30.239,20.136-48.655,20.21c-18.465-0.074-35.772-7.254-48.731-20.21
		c-13.033-13.031-20.21-30.34-20.21-48.731c0-18.391,7.177-35.696,20.21-48.732c13.066-12.984,30.372-20.136,48.731-20.136
		c0.99,0,1.903,0,2.901,0.082c2.588,0.066,5.206,0.344,8.006,0.835c2.128,0.312,4.189,0.738,6.176,1.136
		C118.73,249.375,119.201,249.426,119.628,249.543z M242.419,295.436l-9.74-20.319l-48.124-100.75l87.904-0.156h47.941
		l-16.607,25.671l-6.65,10.47l-35.97,56.028L242.419,295.436z" style="fill: rgb(75, 75, 75);"></path>
</g>
</svg>
